<?xml version="1.0" encoding="utf-8"?>
<!-- Generator: Adobe Illustrator 19.2.1, SVG Export Plug-In . SVG Version: 6.00 Build 0)  -->
<svg version="1.1" id="Le_Populaire_du_Centre" xmlns="http://www.w3.org/2000/svg" xmlns:xlink="http://www.w3.org/1999/xlink"
	 x="0px" y="0px" viewBox="0 0 589.8 108.6" style="enable-background:new 0 0 589.8 108.6;" xml:space="preserve">
<style type="text/css">
	.st0{fill:#BD2E18;}
</style>
<g>
	<path class="st0" d="M57.1,76.5h-8.2v18.9c0,2.8,0,6.6-4.5,6.6c-4.6,0-4.5-3.9-4.5-6.7V76.5h-8.3v18.4c0,3.1,0.2,6.4,2.2,9.2
		c2.3,3.3,6.3,4.5,10.7,4.5c3.6,0,6.9-1,9.4-3.3c3.1-2.8,3.3-6.8,3.3-10.5V76.5z"/>
	<path class="st0" d="M93.2,107v-7.5c-2.4,1.4-4.8,2.4-7.8,2.4c-6.3,0-7.3-5.7-7.3-9.9c0-4.1,1.3-9.8,7.5-9.8c2.5,0,4.6,0.8,6.7,1.9
		v-7c-2.6-0.9-5.3-1.5-8.1-1.5c-10.7,0-14.5,8.7-14.5,16.3c0,4.3,1,8.9,4.2,12.3c3,3.2,6.8,4.2,11.6,4.2
		C88.1,108.5,90.7,108.1,93.2,107"/>
	<polygon class="st0" points="118.6,107.7 118.6,101.6 105.9,101.6 105.9,94.6 116.9,94.6 116.9,89 105.9,89 105.9,82.5 117.7,82.5 
		117.7,76.5 97.6,76.5 97.6,107.7 	"/>
	<path class="st0" d="M150.7,107.7V76.5h-8.2l0.2,12.8c0,3.4,0.4,6.7,0.9,10.1h-0.2c-1.1-3.1-2.2-6.2-3.7-9.2l-7.1-13.7h-9.3v31.2
		h8.2l-0.1-13.6c-0.1-3.3-0.6-6.6-1.1-9.9h0.3c1.1,3.3,2.1,6.7,3.8,9.8l7,13.7H150.7z"/>
	<polygon class="st0" points="178,83.1 178,76.5 155.1,76.5 155.1,83.1 162.4,83.1 162.4,107.7 170.7,107.7 170.7,83.1 	"/>
	<path class="st0" d="M199.1,86.7c0,3.3-1.6,4.4-5.4,4.4h-3.1v-8.8h3.3C197.8,82.4,199.1,83.5,199.1,86.7 M208.7,107.7L201,95.2
		c5.1-1.4,6.3-4.7,6.3-8.9c0-2.8-0.7-5.6-3.2-7.6c-2.4-2-5.6-2.2-8.8-2.2h-13v31.2h8.3V95.7h2.5c2,4,4.1,8,6.1,11.9H208.7z"/>
	<polygon class="st0" points="233.4,108 233.4,101.9 220.7,101.9 220.7,94.9 231.7,94.9 231.7,89.3 220.7,89.3 220.7,82.7 
		232.5,82.7 232.5,76.8 212.4,76.8 212.4,108 	"/>
	<path class="st0" d="M19,91.9c0,4.4-0.7,9.2-7.2,9.2H8.3V83h3.4C18,83,19,87.6,19,91.9 M27.4,91.9c0-4.1-0.9-9-4.4-12.2
		c-3.2-2.9-7-3.3-11.5-3.3H0v31.2h11.3c3.9,0,7.6-0.3,10.7-2.4C26.6,102.2,27.4,96.5,27.4,91.9"/>
</g>
<polygon class="st0" points="36.1,68.6 36.1,56.4 15.1,56.4 15.1,1.9 0.2,1.9 0.2,68.6 "/>
<polygon class="st0" points="86.7,68.6 86.7,57.4 58.8,57.4 58.8,39.8 82.9,39.8 82.9,29.5 58.8,29.5 58.8,13 84.6,13 84.6,1.9 
	43.8,1.9 43.8,68.6 "/>
<path class="st0" d="M149.9,23.8c0,7.9-3.6,11.2-13,11.2h-7V12.8h7.6C147.1,12.8,149.9,16,149.9,23.8 M164.7,24.3
	c0-6.4-1.1-13.3-6.9-17.9c-5.2-4.1-12-4.5-18.8-4.5h-24.2v66.7h15.1v-23h8.4C156,45.6,164.7,39.5,164.7,24.3"/>
<path class="st0" d="M215.1,34.9c0,8.1-1.4,23.6-14.7,23.6c-13.2,0-14.7-15.6-14.7-23.6c0-7.9,1.9-23.1,14.7-23.1
	C213.2,11.8,215.1,27.1,215.1,34.9 M230.2,35c0-16.3-6.8-35-29.8-35c-23.5,0-29.8,18.4-29.8,34.9c0,16.5,6.3,35.6,29.8,35.6
	C224.2,70.5,230.2,51.6,230.2,35"/>
<path class="st0" d="M272.3,23.8c0,7.9-3.6,11.2-13,11.2h-7V12.8h7.6C269.6,12.8,272.3,16,272.3,23.8 M287.2,24.3
	c0-6.4-1.1-13.3-6.9-17.9c-5.2-4.1-12-4.5-18.8-4.5h-24.2v66.7h15.1v-23h8.4C278.5,45.6,287.2,39.5,287.2,24.3"/>
<path class="st0" d="M346.5,40.7V1.9h-15v40.2c0,6.8,0.2,16.4-10.8,16.4c-11.2,0-10.9-9.7-10.9-16.5V1.9h-15v38.9
	c0,6.8,0,13.8,4,19.9c4.6,7,12.6,9.8,21.9,9.8c7.6,0,14.3-2.1,19.3-7.1C346.4,57.2,346.5,48.5,346.5,40.7"/>
<polygon class="st0" points="391.7,68.6 391.7,56.4 370.8,56.4 370.8,1.9 355.8,1.9 355.8,68.6 "/>
<path class="st0" d="M436,44.8h-16.8l3.6-12.4c1.9-6.7,3.3-13.5,4.6-20.2h0.4c1.3,6.7,2.6,13.5,4.5,20.2L436,44.8z M458.8,68.6
	L437.6,1.9h-19.4l-21.3,66.7h15.9l3.9-13.8h21.6l4.2,13.8H458.8z"/>
<rect x="465.2" y="1.9" class="st0" width="15" height="66.7"/>
<path class="st0" d="M524,23.1c0,7.8-3.8,10.4-13,10.4h-7V12.8h7.7C520.8,12.8,524,15.4,524,23.1 M541.3,68.6l-16.3-27.3
	C536,38.4,539,31.4,539,22.5c0-5.9-1.3-11.8-6.5-16c-5.2-4.1-11.5-4.6-18.3-4.6H489v66.7h15V42.2h6.8c4.4,8.9,9,17.6,13.6,26.4
	H541.3z"/>
<polygon class="st0" points="589.8,68.6 589.8,57.4 561.9,57.4 561.9,39.8 586,39.8 586,29.5 561.9,29.5 561.9,13 587.7,13 
	587.7,1.9 546.9,1.9 546.9,68.6 "/>
</svg>
